<svg width="14" height="18" viewBox="0 0 14 18" fill="none" xmlns="http://www.w3.org/2000/svg">
<path d="M6.34838 0.915297L13.7856 8.5646C13.8529 8.63374 13.9069 8.71923 13.9439 8.81526C13.9809 8.91128 14 9.01562 14 9.12118C14 9.22675 13.9809 9.33108 13.9439 9.42711C13.9069 9.52314 13.8529 9.60862 13.7856 9.67777L6.34839 17.3248C6.32597 17.3479 6.29842 17.3629 6.26902 17.3679C6.23962 17.373 6.20961 17.3679 6.18257 17.3534C6.15552 17.3388 6.13258 17.3153 6.11648 17.2857C6.10037 17.2561 6.09178 17.2217 6.09173 17.1865L6.09173 15.3197C6.09173 15.2137 6.13062 15.1122 6.19867 15.0408L11.1043 9.99582L0.15556 9.99582C0.0700079 9.99582 1.01576e-05 9.91285 1.0153e-05 9.81144L1.00913e-05 8.42862C1.00868e-05 8.32721 0.0700079 8.24425 0.15556 8.24425L11.1043 8.24424L6.19867 3.19925C6.13062 3.13011 6.09173 3.02871 6.09173 2.92039L6.09173 1.05358C6.09173 0.89686 6.24728 0.811587 6.34838 0.915297Z" fill="#616161"/>
</svg>
