<svg width="14" height="18" viewBox="0 0 14 18" fill="none" xmlns="http://www.w3.org/2000/svg">
<path d="M7.65161 16.9838L0.214392 9.33445C0.147095 9.2653 0.0931232 9.17982 0.0561333 9.08379C0.0191433 8.98776 -3.16209e-07 8.88343 -3.12213e-07 8.77787C-3.08218e-07 8.6723 0.0191434 8.56797 0.0561333 8.47194C0.0931232 8.37591 0.147095 8.29043 0.214392 8.22128L7.65161 0.574287C7.67403 0.551179 7.70158 0.536196 7.73098 0.531122C7.76038 0.526049 7.79039 0.531099 7.81743 0.54567C7.84448 0.560242 7.86742 0.583721 7.88352 0.613311C7.89963 0.642901 7.90822 0.677355 7.90827 0.712569L7.90827 2.57938C7.90827 2.68539 7.86938 2.7868 7.80133 2.85824L2.89568 7.90323L13.8444 7.90323C13.93 7.90323 14 7.9862 14 8.08761L14 9.47043C14 9.57184 13.93 9.6548 13.8444 9.6548L2.89568 9.6548L7.80133 14.6998C7.86938 14.7689 7.90827 14.8703 7.90827 14.9787L7.90827 16.8455C7.90827 17.0022 7.75272 17.0875 7.65161 16.9838Z" fill="#B4B4B4"/>
</svg>
